<svg width="21" height="21" viewBox="0 0 21 21" fill="none" xmlns="http://www.w3.org/2000/svg">
<path fill-rule="evenodd" clip-rule="evenodd" d="M17.9406 3.05177C15.9665 1.08477 13.341 0.00116667 10.544 0C4.78056 0 0.0900311 4.66783 0.0876866 10.4053C0.0869832 12.2393 0.568322 14.0294 1.4834 15.6077L0.139166 20.4941C0.0773227 20.7189 0.282063 20.9264 0.50766 20.8675L5.54301 19.5529C7.07026 20.3819 8.78976 20.8189 10.5397 20.8194H10.544C16.3067 20.8194 20.9977 16.1511 21 10.4134C21.0012 7.63303 19.9147 5.01877 17.9406 3.05177ZM6.29773 10.784C6.16713 10.6104 5.23095 9.37417 5.23095 8.09433C5.23095 6.8145 5.90595 6.18543 6.14533 5.92527C6.38471 5.6651 6.66793 5.6 6.84213 5.6C7.01633 5.6 7.19077 5.60163 7.34293 5.6091C7.5033 5.61727 7.71876 5.54843 7.93071 6.05547C8.14852 6.57603 8.67089 7.8561 8.7363 7.98607C8.80172 8.11627 8.84509 8.26793 8.75811 8.44153C8.67112 8.6149 8.62752 8.7234 8.49692 8.8753C8.36633 9.0272 8.22261 9.21433 8.10491 9.33077C7.97409 9.4605 7.83787 9.6012 7.99026 9.86137C8.14266 10.1218 8.6669 10.9732 9.44366 11.6627C10.4415 12.5487 11.2834 12.8231 11.5446 12.9533C11.8058 13.0835 11.9582 13.0618 12.1106 12.8882C12.263 12.7146 12.7638 12.1289 12.938 11.8687C13.1122 11.6086 13.2864 11.652 13.5258 11.7385C13.7654 11.8253 15.0497 12.4544 15.3109 12.5844C15.5721 12.7146 15.7463 12.7797 15.8117 12.8882C15.8771 12.9967 15.8771 13.5172 15.6593 14.1246C15.4415 14.732 14.3977 15.2864 13.8957 15.3608C13.4456 15.4278 12.8761 15.4558 12.2501 15.2577C11.8707 15.138 11.384 14.9779 10.7606 14.71C8.14008 13.5837 6.42855 10.9576 6.29773 10.784Z" fill="white"/>
</svg>
