<svg width="20" height="22" viewBox="0 0 20 22" fill="none" xmlns="http://www.w3.org/2000/svg">
<path d="M1 21L19 21" stroke="#2E5A90" stroke-width="1.5" stroke-linecap="round" stroke-linejoin="round"/>
<path d="M6.33332 4H3.66668C2.75001 4 2 4.42361 2 4.94135V16.0587C2 16.5764 2.75001 17 3.66668 17H6.33332C7.24999 17 8 16.5764 8 16.0587V4.94135C8 4.42361 7.24999 4 6.33332 4Z" stroke="#2E5A90" stroke-width="1.5" stroke-linecap="round" stroke-linejoin="round"/>
<path d="M16.3333 1H13.6667C12.75 1 12 1.42353 12 1.94118V16.0588C12 16.5765 12.75 17 13.6667 17H16.3333C17.25 17 18 16.5765 18 16.0588V1.94118C18 1.42353 17.25 1 16.3333 1Z" stroke="#2E5A90" stroke-width="1.5" stroke-linecap="round" stroke-linejoin="round"/>
</svg>
