<svg width="18" height="18" viewBox="0 0 18 18" fill="none" xmlns="http://www.w3.org/2000/svg">
<g clip-path="url(#clip0_2001_2)">
<path fill-rule="evenodd" clip-rule="evenodd" d="M13.6652 11.1748L17.3464 13.0698C17.9725 13.392 18.2003 14.188 17.8018 14.7943L16.2838 17.1631C15.9233 17.7127 15.297 18.0349 14.6329 17.997C13.9499 17.9401 13.1149 17.8643 12.5267 17.7127C9.90815 17.0305 7.19472 15.4008 4.89874 13.0888C2.60276 10.7958 0.970909 8.08582 0.287808 5.47063C0.136008 4.88316 0.0411324 4.04933 0.0031823 3.38606C-0.0347677 2.74174 0.268832 2.11637 0.800134 1.75631L3.15304 0.202358C3.74126 -0.195605 4.55719 0.0128516 4.89874 0.657173L6.77726 4.31465C7.06189 4.8263 6.91009 5.47063 6.45469 5.83069L4.74694 7.15723C5.43004 8.42693 6.09416 9.45026 7.32755 10.6821C8.48502 11.838 9.4907 12.5203 10.8 13.2215L12.1472 11.4969C12.5077 11.0421 13.1528 10.9095 13.6652 11.1748ZM10.0039 1.82713C11.6547 1.82713 13.1917 2.47146 14.3681 3.62744C15.5256 4.78344 16.1707 6.35634 16.1707 7.96714C16.1707 8.44091 16.5503 8.81991 17.0246 8.81991C17.499 8.81991 17.8786 8.44091 17.8786 7.96714C17.8975 5.90152 17.0626 3.8738 15.5825 2.39566C14.0836 0.955409 12.1102 0.121581 10.0039 0.121581C9.5295 0.121581 9.15 0.500594 9.15 0.97436C9.15 1.44812 9.5295 1.82713 10.0039 1.82713ZM10.0039 5.11864C10.7819 5.11864 11.5029 5.42185 12.0532 5.97142C12.6035 6.52099 12.9071 7.24111 12.9071 8.01809C12.9071 8.49185 13.2865 8.87087 13.7609 8.87087C14.2354 8.87087 14.6148 8.49185 14.6148 8.01809C14.6148 6.7863 14.1404 5.6303 13.2676 4.75858C12.3947 3.88685 11.2373 3.41309 10.0039 3.41309C9.5295 3.41309 9.15 3.7921 9.15 4.26587C9.15 4.73963 9.5295 5.11864 10.0039 5.11864Z" fill="white"/>
</g>
<defs>
<clipPath id="clip0_2001_2">
<rect width="18" height="18" fill="white"/>
</clipPath>
</defs>
</svg>
