<svg width="21" height="20" viewBox="0 0 21 20" fill="none" xmlns="http://www.w3.org/2000/svg">
<path d="M4.60517 3.33654V13.4327H4.80709C4.96775 13.4327 5.12183 13.4965 5.23544 13.6101C5.34904 13.7237 5.41286 13.8778 5.41286 14.0385C5.41286 14.1991 5.34904 14.3532 5.23544 14.4668C5.12183 14.5804 4.96775 14.6442 4.80709 14.6442H3.19171C3.03105 14.6442 2.87697 14.5804 2.76336 14.4668C2.64976 14.3532 2.58594 14.1991 2.58594 14.0385C2.58594 13.8778 2.64976 13.7237 2.76336 13.6101C2.87697 13.4965 3.03105 13.4327 3.19171 13.4327H3.39363V3.33654H3.19171C3.03105 3.33654 2.87697 3.27272 2.76336 3.15911C2.64976 3.04551 2.58594 2.89143 2.58594 2.73077C2.58594 2.57011 2.64976 2.41603 2.76336 2.30243C2.87697 2.18882 3.03105 2.125 3.19171 2.125H4.80709C4.96775 2.125 5.12183 2.18882 5.23544 2.30243C5.34904 2.41603 5.41286 2.57011 5.41286 2.73077C5.41286 2.89143 5.34904 3.04551 5.23544 3.15911C5.12183 3.27272 4.96775 3.33654 4.80709 3.33654H4.60517ZM17.7302 15.0481C17.5702 15.0502 17.4173 15.1147 17.3041 15.2278C17.191 15.341 17.1265 15.4938 17.1244 15.6538V15.8558H7.02824V15.6538C7.02824 15.4932 6.96442 15.3391 6.85082 15.2255C6.73722 15.1119 6.58314 15.0481 6.42248 15.0481C6.26182 15.0481 6.10774 15.1119 5.99413 15.2255C5.88053 15.3391 5.81671 15.4932 5.81671 15.6538V17.2692C5.81671 17.4299 5.88053 17.584 5.99413 17.6976C6.10774 17.8112 6.26182 17.875 6.42248 17.875C6.58314 17.875 6.73722 17.8112 6.85082 17.6976C6.96442 17.584 7.02824 17.4299 7.02824 17.2692V17.0673H17.1244V17.2692C17.1244 17.4299 17.1882 17.584 17.3018 17.6976C17.4154 17.8112 17.5695 17.875 17.7302 17.875C17.8908 17.875 18.0449 17.8112 18.1585 17.6976C18.2721 17.584 18.3359 17.4299 18.3359 17.2692V15.6538C18.3338 15.4938 18.2694 15.341 18.1562 15.2278C18.043 15.1147 17.8902 15.0502 17.7302 15.0481ZM16.1148 6.97115H18.3359V3.53846C18.3338 3.16424 18.1842 2.80595 17.9196 2.54134C17.655 2.27672 17.2967 2.12712 16.9225 2.125H11.0667V6.97115H12.884C13.0447 6.97115 13.1988 7.03498 13.3124 7.14858C13.426 7.26218 13.4898 7.41626 13.4898 7.57692C13.4898 7.73758 13.426 7.89166 13.3124 8.00527C13.1988 8.11887 13.0447 8.18269 12.884 8.18269H11.0667V8.38462C11.0667 8.54528 11.0029 8.69935 10.8893 8.81296C10.7757 8.92656 10.6216 8.99038 10.4609 8.99038C10.3003 8.99038 10.1462 8.92656 10.0326 8.81296C9.91899 8.69935 9.85517 8.54528 9.85517 8.38462V2.125H8.03786C7.66364 2.12712 7.30535 2.27672 7.04074 2.54134C6.77612 2.80595 6.62652 3.16424 6.6244 3.53846V12.4231C6.62652 12.7973 6.77612 13.1556 7.04074 13.4202C7.30535 13.6848 7.66364 13.8344 8.03786 13.8365H9.85517V11.6154C9.85517 11.4547 9.91899 11.3006 10.0326 11.187C10.1462 11.0734 10.3003 11.0096 10.4609 11.0096C10.6216 11.0096 10.7757 11.0734 10.8893 11.187C11.0029 11.3006 11.0667 11.4547 11.0667 11.6154V13.8365H16.9225C17.2967 13.8344 17.655 13.6848 17.9196 13.4202C18.1842 13.1556 18.3338 12.7973 18.3359 12.4231V8.18269H16.1148C15.9541 8.18269 15.8 8.11887 15.6864 8.00527C15.5728 7.89166 15.509 7.73758 15.509 7.57692C15.509 7.41626 15.5728 7.26218 15.6864 7.14858C15.8 7.03498 15.9541 6.97115 16.1148 6.97115Z" fill="white"/>
</svg>
