<svg width="22" height="20" viewBox="0 0 22 20" fill="none" xmlns="http://www.w3.org/2000/svg">
<path d="M2.73162 11.168L10.3388 18.3737C10.6387 18.6578 10.7886 18.7998 10.9708 18.8104C10.9902 18.8116 11.0098 18.8116 11.0292 18.8104C11.2114 18.7998 11.3613 18.6578 11.6612 18.3737L19.2684 11.168C21.3883 9.15996 21.6462 5.87395 19.8656 3.55973L19.5037 3.08949C17.3616 0.305512 13.0338 0.769813 11.531 3.94483C11.3189 4.39302 10.6811 4.39302 10.469 3.94483C8.96618 0.769813 4.63839 0.305512 2.49626 3.08949L2.13443 3.55973C0.353758 5.87395 0.611681 9.15995 2.73162 11.168Z" stroke="#2E5A90" stroke-width="1.5"/>
</svg>
