<svg width="14" height="16" viewBox="0 0 14 16" fill="none" xmlns="http://www.w3.org/2000/svg">
<path fill-rule="evenodd" clip-rule="evenodd" d="M3.32388 0.881667C5.38022 -0.313153 7.90779 -0.29227 9.94483 0.936371C11.9618 2.19004 13.1877 4.42746 13.1763 6.8343C13.1294 9.22535 11.8149 11.4729 10.1717 13.2104C9.22337 14.2178 8.16246 15.1085 7.01068 15.8645C6.89205 15.9331 6.76212 15.979 6.62728 16C6.49751 15.9945 6.37112 15.9561 6.25953 15.8884C4.50111 14.7525 2.95843 13.3026 1.70572 11.6084C0.657495 10.1942 0.061963 8.48565 1.0934e-06 6.71475C-0.00135969 4.30329 1.26754 2.07649 3.32388 0.881667ZM4.51341 7.7125C4.85931 8.56526 5.67578 9.1215 6.58159 9.12151C7.175 9.12577 7.74543 8.88807 8.16578 8.46139C8.58613 8.03471 8.82147 7.45448 8.81937 6.85001C8.82254 5.92733 8.27933 5.09371 7.44338 4.73838C6.60744 4.38304 5.64365 4.57609 5.00202 5.22739C4.3604 5.87868 4.1675 6.85974 4.51341 7.7125Z" fill="#2E5A90"/>
</svg>
