<svg width="16" height="16" viewBox="0 0 16 16" fill="none" xmlns="http://www.w3.org/2000/svg">
<path d="M14.784 2.64435H6.49171C6.29177 2.64435 6.10003 2.72377 5.95866 2.86515C5.81728 3.00652 5.73786 3.19826 5.73786 3.3982C5.73786 3.59813 5.81728 3.78987 5.95866 3.93125C6.10003 4.07262 6.29177 4.15204 6.49171 4.15204H7.9994V6.41358C7.9994 6.61351 8.07882 6.80526 8.2202 6.94663C8.36157 7.08801 8.55331 7.16743 8.75325 7.16743C8.95318 7.16743 9.14492 7.08801 9.28629 6.94663C9.42767 6.80526 9.50709 6.61351 9.50709 6.41358V4.15204H14.0302V8.67512H11.7686C11.5687 8.67512 11.377 8.75454 11.2356 8.89592C11.0942 9.03729 11.0148 9.22903 11.0148 9.42897C11.0148 9.6289 11.0942 9.82064 11.2356 9.96202C11.377 10.1034 11.5687 10.1828 11.7686 10.1828H14.0302V13.952H9.50709V12.4444C9.50709 12.2444 9.42767 12.0527 9.28629 11.9113C9.14492 11.7699 8.95318 11.6905 8.75325 11.6905C8.55331 11.6905 8.36157 11.7699 8.2202 11.9113C8.07882 12.0527 7.9994 12.2444 7.9994 12.4444V13.952H2.72248C2.52254 13.952 2.3308 13.8726 2.18943 13.7312C2.04805 13.5899 1.96863 13.3981 1.96863 13.1982C1.96863 12.9983 2.04805 12.8065 2.18943 12.6651C2.3308 12.5238 2.52254 12.4444 2.72248 12.4444H4.23017C4.4301 12.4444 4.62184 12.3649 4.76322 12.2236C4.90459 12.0822 4.98401 11.8904 4.98401 11.6905V9.42897H7.9994V10.1828C7.9994 10.3827 8.07882 10.5745 8.2202 10.7159C8.36157 10.8572 8.55331 10.9367 8.75325 10.9367C8.95318 10.9367 9.14492 10.8572 9.28629 10.7159C9.42767 10.5745 9.50709 10.3827 9.50709 10.1828V8.67512C9.50709 8.47519 9.42767 8.28344 9.28629 8.14207C9.14492 8.0007 8.95318 7.92127 8.75325 7.92127H4.98401V1.13666C4.98401 0.936726 4.90459 0.744982 4.76322 0.603609C4.62184 0.462235 4.4301 0.382813 4.23017 0.382812H2.72248C2.12288 0.383471 1.54803 0.621951 1.12405 1.04593C0.700076 1.46991 0.461596 2.04476 0.460938 2.64435V13.1997C0.461975 13.799 0.700625 14.3735 1.12456 14.7972C1.5485 15.2208 2.12314 15.4591 2.72248 15.4597H14.784C14.9839 15.4597 15.1757 15.3803 15.3171 15.2389C15.4584 15.0976 15.5379 14.9058 15.5379 14.7059V3.3982C15.5379 3.19826 15.4584 3.00652 15.3171 2.86515C15.1757 2.72377 14.9839 2.64435 14.784 2.64435Z" fill="white"/>
</svg>
