<svg width="18" height="18" viewBox="0 0 18 18" fill="none" xmlns="http://www.w3.org/2000/svg">
<g clip-path="url(#clip0_1_262)">
<path d="M4.40107 9.4248H13.787C14.0689 9.4248 14.2974 9.19626 14.2974 8.91436C14.2974 6.04521 11.9632 3.71094 9.09401 3.71094C6.22486 3.71094 3.89062 6.04517 3.89062 8.91436C3.89062 9.19626 4.11917 9.4248 4.40107 9.4248Z" fill="white"/>
<path d="M9.09248 2.4865C9.37438 2.4865 9.60292 2.25795 9.60292 1.97605V0.81904C9.60292 0.537137 9.37438 0.308594 9.09248 0.308594C8.81057 0.308594 8.58203 0.537137 8.58203 0.81904V1.97605C8.58203 2.25795 8.81057 2.4865 9.09248 2.4865Z" fill="white"/>
<path d="M5.13137 3.17399C5.27232 3.41812 5.58448 3.50176 5.82864 3.36081C6.07281 3.21986 6.15645 2.90767 6.01547 2.66354L5.43696 1.66154C5.29598 1.41737 4.98385 1.3338 4.73969 1.47471C4.49553 1.61566 4.41188 1.92785 4.55287 2.17198L5.13137 3.17399Z" fill="white"/>
<path d="M1.73577 5.36273L2.73774 5.94124C2.98167 6.08212 3.29396 5.99872 3.43501 5.75442C3.576 5.51029 3.49235 5.1981 3.24819 5.05715L2.24622 4.47864C2.00202 4.33766 1.6899 4.42134 1.54895 4.66546C1.408 4.90959 1.49161 5.22178 1.73577 5.36273Z" fill="white"/>
<path d="M0.893259 9.42324H2.05027C2.33217 9.42324 2.56072 9.19469 2.56072 8.91279C2.56072 8.63089 2.33217 8.40234 2.05027 8.40234H0.893259C0.611356 8.40234 0.382812 8.63089 0.382812 8.91279C0.382812 9.19469 0.611356 9.42324 0.893259 9.42324Z" fill="white"/>
<path d="M15.625 8.9167C15.625 9.1986 15.8535 9.42714 16.1354 9.42714H17.2925C17.5744 9.42714 17.8029 9.1986 17.8029 8.9167C17.8029 8.63479 17.5744 8.40625 17.2925 8.40625H16.1354C15.8535 8.40625 15.625 8.63479 15.625 8.9167Z" fill="white"/>
<path d="M15.4494 5.94122L16.4513 5.36271C16.6955 5.22176 16.7791 4.90957 16.6382 4.66544C16.4972 4.42128 16.185 4.3377 15.9409 4.47862L14.9389 5.05712C14.6947 5.19808 14.6111 5.51026 14.7521 5.75439C14.893 5.99852 15.2052 6.08217 15.4494 5.94122Z" fill="white"/>
<path d="M12.3608 3.36086C12.6047 3.50174 12.917 3.41833 13.0581 3.17403L13.6366 2.17203C13.7775 1.9279 13.6939 1.61571 13.4497 1.47476C13.2056 1.33374 12.8934 1.41742 12.7525 1.66158L12.174 2.66359C12.033 2.90772 12.1166 3.21991 12.3608 3.36086Z" fill="white"/>
<path d="M17.2956 10.9922H0.893259C0.611356 10.9922 0.382812 11.2207 0.382812 11.5026C0.382812 11.7845 0.611356 12.0131 0.893259 12.0131H17.2956C17.5775 12.0131 17.806 11.7845 17.806 11.5026C17.806 11.2207 17.5775 10.9922 17.2956 10.9922Z" fill="white"/>
<path d="M15.5675 13.8516H2.61982C2.33792 13.8516 2.10938 14.0801 2.10938 14.362C2.10938 14.6439 2.33792 14.8725 2.61982 14.8725H15.5675C15.8494 14.8725 16.0779 14.6439 16.0779 14.362C16.0779 14.0801 15.8494 13.8516 15.5675 13.8516Z" fill="white"/>
<path d="M14.0278 16.7109H4.15888C3.87698 16.7109 3.64844 16.9395 3.64844 17.2214C3.64844 17.5033 3.87698 17.7318 4.15888 17.7318H14.0278C14.3098 17.7318 14.5383 17.5033 14.5383 17.2214C14.5383 16.9395 14.3098 16.7109 14.0278 16.7109Z" fill="white"/>
</g>
<defs>
<clipPath id="clip0_1_262">
<rect width="17.4232" height="17.4232" fill="white" transform="translate(0.386719 0.308594)"/>
</clipPath>
</defs>
</svg>
